PathFileType	4	(X/Y/Z)	OpenSim_Sub09_CSStiffKnee_Magnet.trc
DataRate	CameraRate	NumFrames	NumMarkers	Units	OrigDataRate	OrigDataStartFrame	OrigNumFrames
100	100	33	8	m	100	2673	7127
Frame#	Time	torso_imu_offset_imu	pelvis_imu_offset_imu	tibia_r_imu_offset_imu	femur_r_imu_offset_imu	tibia_l_imu_offset_imu	femur_l_imu_offset_imu	toes_r_imu_offset_imu	toes_l_imu_offset_imu
				X1	Y1	Z1	X2	Y2	Z2	X3	Y3	Z3	X4	Y4	Z4	X5	Y5	Z5	X6	Y6	Z6	X7	Y7	Z7	X8		Y8	Z8	

2673	26.72000000	-0.90115308	-0.17959701	0.19592274	-0.53711615	0.07109409	-0.78149485	-0.60025841	-0.58957457	-0.05673544	-0.73284204	-0.41708269	0.07977059	-0.50721341	0.64733054	0.09788797	-0.64125891	0.29625409	0.11519500	-0.69557804	-0.11562404	-0.35045848	-0.79826053	0.00132156	-0.23699392
2674	26.73000000	-0.90213983	-0.17565286	0.19433057	-0.53861899	0.06986904	-0.77943706	-0.60229501	-0.59744782	-0.05242635	-0.73172166	-0.42838498	0.08159717	-0.52475605	0.63330438	0.09504423	-0.64981237	0.28717799	0.10950788	-0.69644294	-0.11827466	-0.34659311	-0.79702142	-0.01040418	-0.25574035
2675	26.74000000	-0.90008181	-0.17366897	0.19868367	-0.53735971	0.06279825	-0.77937205	-0.59395859	-0.59528772	-0.05536520	-0.72725930	-0.43632232	0.07629259	-0.54636164	0.61522583	0.09639231	-0.65384697	0.27886215	0.11048377	-0.69543970	-0.11783839	-0.34900564	-0.78644558	-0.02389872	-0.27090334
2676	26.75000000	-0.90087675	-0.17228556	0.19757531	-0.53677400	0.06176518	-0.78072661	-0.58765740	-0.59940513	-0.05536430	-0.72430387	-0.44385087	0.07760128	-0.55650709	0.60226242	0.09411174	-0.65871464	0.26771405	0.10412914	-0.69600167	-0.12753036	-0.34854697	-0.78191092	-0.03480658	-0.27986978
2677	26.76000000	-0.90378927	-0.16530771	0.19961349	-0.53441522	0.05009349	-0.78358373	-0.59322115	-0.60451662	-0.05690817	-0.72280115	-0.44970194	0.07795347	-0.57319801	0.59036850	0.08939658	-0.67045673	0.26086228	0.10312683	-0.69714240	-0.12891811	-0.34949930	-0.77424628	-0.03761351	-0.29547211
2678	26.77000000	-0.90460526	-0.15802820	0.20370859	-0.53561613	0.04571404	-0.78118475	-0.59199483	-0.60994485	-0.05797907	-0.71710235	-0.45164005	0.08315479	-0.58905451	0.56396655	0.09080839	-0.67989781	0.24761246	0.10155252	-0.69603799	-0.12890279	-0.34869829	-0.77016901	-0.05641942	-0.31104234
2679	26.78000000	-0.90453713	-0.15156521	0.21076802	-0.53450429	0.04221016	-0.78604105	-0.58628308	-0.61432788	-0.05587052	-0.71351956	-0.45527260	0.08797772	-0.59920157	0.55416802	0.08488726	-0.67912292	0.23591745	0.09700167	-0.70070773	-0.13144250	-0.34769916	-0.76038611	-0.06652534	-0.32203390
2680	26.79000000	-0.90618690	-0.14797314	0.20818741	-0.53362065	0.03784181	-0.78706012	-0.57534673	-0.61125798	-0.06663565	-0.71094216	-0.45911684	0.08616801	-0.61465762	0.54343329	0.07786059	-0.68945608	0.23025551	0.09026192	-0.69412063	-0.13444538	-0.34788071	-0.75575349	-0.07026559	-0.33615806
2681	26.80000000	-0.90795183	-0.14759247	0.21076824	-0.53247146	0.03828827	-0.78322173	-0.57712484	-0.61972863	-0.06226372	-0.70157999	-0.46628813	0.08701459	-0.63263428	0.52653996	0.07065088	-0.69495662	0.21728849	0.08835600	-0.69666052	-0.13979135	-0.34723029	-0.74819057	-0.08148808	-0.35401875
2682	26.81000000	-0.90157776	-0.14794631	0.20807097	-0.52935277	0.03469263	-0.78600503	-0.58010701	-0.62088718	-0.06110196	-0.70353156	-0.47257745	0.09201460	-0.63766683	0.51361223	0.06504063	-0.69703561	0.20268862	0.08926806	-0.69604002	-0.13689844	-0.34989464	-0.74322156	-0.08553194	-0.37072677
2683	26.82000000	-0.90353684	-0.14542885	0.21195639	-0.53136119	0.03387073	-0.78994952	-0.57761100	-0.62558498	-0.06878214	-0.69888604	-0.47342457	0.09323006	-0.65355672	0.49695649	0.06404588	-0.70314708	0.19256033	0.08871487	-0.69381203	-0.13862611	-0.34548681	-0.72926294	-0.09146608	-0.38412968
2684	26.83000000	-0.90327896	-0.13751877	0.21169052	-0.52731586	0.02990549	-0.78822611	-0.57615069	-0.63265617	-0.07062856	-0.69210826	-0.48500162	0.09416297	-0.66614156	0.48178504	0.05971484	-0.70948362	0.18558890	0.09136946	-0.69483990	-0.14141754	-0.34256715	-0.72139614	-0.10250969	-0.39984636
2685	26.84000000	-0.90680842	-0.13132557	0.21479076	-0.52183944	0.02182418	-0.78680157	-0.56840548	-0.63090324	-0.06894023	-0.68819261	-0.49589659	0.09015542	-0.67401341	0.47160063	0.05218184	-0.71588030	0.16706540	0.08920408	-0.69133688	-0.14542254	-0.34612187	-0.71105649	-0.11060942	-0.41047613
2686	26.85000000	-0.90279863	-0.13134720	0.21016191	-0.52769656	0.02380098	-0.78873382	-0.56696408	-0.63338148	-0.07778705	-0.68364479	-0.50169964	0.09317442	-0.68067020	0.45305446	0.05267501	-0.71888970	0.15886336	0.09562790	-0.68808853	-0.14482827	-0.33871959	-0.69738147	-0.11460337	-0.42183521
2687	26.86000000	-0.90193832	-0.12637471	0.21301559	-0.52630206	0.02456801	-0.79210977	-0.57065367	-0.63619621	-0.08450023	-0.67946126	-0.49926374	0.09128209	-0.68946396	0.42877618	0.04779912	-0.72198594	0.14907412	0.10039900	-0.68915808	-0.14567675	-0.34163732	-0.69303862	-0.12305192	-0.43796886
2688	26.87000000	-0.90513482	-0.12365623	0.21429576	-0.52483492	0.01968203	-0.78838287	-0.56593096	-0.64094406	-0.08881916	-0.67524076	-0.50858888	0.08839980	-0.70230754	0.41741830	0.05268672	-0.72659744	0.13627393	0.10393821	-0.69084533	-0.14582492	-0.34113509	-0.68831830	-0.13745093	-0.44879662
2689	26.88000000	-0.90591354	-0.12699732	0.21087092	-0.53227144	0.02046587	-0.78728586	-0.56203646	-0.64687407	-0.08978496	-0.67044844	-0.51400562	0.08545226	-0.71385003	0.40423573	0.05074980	-0.72855758	0.12777157	0.10837098	-0.68487684	-0.15117438	-0.33848074	-0.67587045	-0.14104227	-0.45735558
2690	26.89000000	-0.90358947	-0.12178228	0.21100516	-0.52987247	0.02040998	-0.78366870	-0.56059750	-0.64524348	-0.09162945	-0.66898585	-0.51805728	0.09032113	-0.71208155	0.39113808	0.04818537	-0.73235538	0.11724944	0.11562536	-0.68531143	-0.16030428	-0.34090622	-0.66308740	-0.15257774	-0.46580398
2691	26.90000000	-0.90667105	-0.12216654	0.20687093	-0.53266725	0.02666472	-0.78284675	-0.55619668	-0.64984980	-0.10308635	-0.67024675	-0.52609137	0.08259424	-0.72236431	0.38158937	0.05107131	-0.73349767	0.10777715	0.11627942	-0.68110459	-0.15403012	-0.33948256	-0.65399004	-0.16439818	-0.47789362
2692	26.91000000	-0.90661570	-0.11891853	0.20789896	-0.52953143	0.03265537	-0.78103735	-0.55502885	-0.65069809	-0.10316382	-0.66199507	-0.53459057	0.07909243	-0.73466220	0.36296503	0.05450071	-0.73356837	0.09895519	0.12553385	-0.68046143	-0.15575030	-0.34057925	-0.65240485	-0.17064439	-0.48071643
2693	26.92000000	-0.90537492	-0.12256120	0.20509154	-0.53742000	0.03676175	-0.78304880	-0.55402497	-0.65899588	-0.10884163	-0.65293062	-0.54037770	0.07685546	-0.73767084	0.35021501	0.05705522	-0.73930467	0.09253957	0.12832390	-0.68137425	-0.16178464	-0.33975104	-0.63856577	-0.17888090	-0.49342636
2694	26.93000000	-0.90556165	-0.12459496	0.20582251	-0.53859869	0.03911737	-0.77853489	-0.54826552	-0.66229462	-0.11312399	-0.65165117	-0.54098700	0.07244181	-0.73918304	0.34484333	0.06172583	-0.73298656	0.08190940	0.13372011	-0.68141715	-0.16355015	-0.33821470	-0.63231992	-0.18621199	-0.48910649
2695	26.94000000	-0.90540903	-0.12738300	0.20336813	-0.54406810	0.04347153	-0.77465916	-0.54330736	-0.66415599	-0.11857115	-0.65177267	-0.54308169	0.06450136	-0.74277550	0.33232153	0.06211434	-0.74044791	0.07796929	0.13310113	-0.67836860	-0.16857606	-0.34132134	-0.62567246	-0.19228083	-0.49281171
2696	26.95000000	-0.90495866	-0.12906365	0.20061590	-0.54800810	0.05397024	-0.77125846	-0.53936879	-0.67048724	-0.12055739	-0.65230446	-0.55166440	0.05788572	-0.74639457	0.32558072	0.06054920	-0.73796857	0.06941025	0.14137116	-0.67353035	-0.17290222	-0.33519404	-0.62006669	-0.20103264	-0.49416949
2697	26.96000000	-0.90715484	-0.12830606	0.19491675	-0.54756149	0.05877823	-0.76843012	-0.53341820	-0.67576037	-0.13429268	-0.64701477	-0.55176818	0.05773747	-0.74237441	0.31877265	0.06753246	-0.72798857	0.06273427	0.15676947	-0.67138427	-0.16989646	-0.34333639	-0.62060655	-0.20653457	-0.49687735
2698	26.97000000	-0.90651330	-0.13280917	0.19174523	-0.55888587	0.05873473	-0.76342364	-0.52484123	-0.68727693	-0.14655042	-0.64390338	-0.55422133	0.05326000	-0.74402463	0.30907424	0.07700025	-0.72785218	0.05928862	0.15366563	-0.66826392	-0.17874850	-0.34887304	-0.61574277	-0.21213666	-0.49439111
2699	26.98000000	-0.91270424	-0.14138953	0.18729153	-0.56529401	0.06965028	-0.75384359	-0.50747846	-0.68502925	-0.14077970	-0.63916658	-0.55438425	0.04542876	-0.74725483	0.30432167	0.07746845	-0.73380379	0.05296407	0.16355440	-0.67147940	-0.18646466	-0.35190448	-0.61907287	-0.21924464	-0.49669483
2700	26.99000000	-0.90681144	-0.14664983	0.18014827	-0.56415361	0.07500669	-0.75094852	-0.50393341	-0.69339716	-0.14568092	-0.64469796	-0.55144660	0.04079906	-0.74976459	0.30816039	0.08544639	-0.73777054	0.04831885	0.16426662	-0.67052741	-0.18688776	-0.35284349	-0.61251918	-0.22394765	-0.49412165
2701	27	-0.90877013	-0.15074311	0.17560706	-0.57163786	0.07935516	-0.74268618	-0.49442239	-0.69957178	-0.16081018	-0.64875472	-0.55231110	0.03340989	-0.74747114	0.30753682	0.09375681	-0.73562835	0.05373273	0.16540940	-0.67336719	-0.18715010	-0.35694887	-0.61414118	-0.22980003	-0.48395224
2702	27.01000000	-0.91075671	-0.15498933	0.17010397	-0.57546177	0.09737247	-0.74206900	-0.48866952	-0.71109421	-0.16500694	-0.64169339	-0.55523705	0.03434876	-0.74171423	0.30828613	0.09107638	-0.72719748	0.05376331	0.16686871	-0.67167059	-0.19622242	-0.36351841	-0.61867729	-0.23664960	-0.48108190
2703	27.02000000	-0.91479569	-0.16007689	0.16231878	-0.58432449	0.10701547	-0.73177330	-0.48096088	-0.71086184	-0.17093421	-0.64530205	-0.55294154	0.02979401	-0.74310788	0.30922114	0.09792990	-0.72104029	0.05602031	0.17129386	-0.66858440	-0.20139977	-0.35804999	-0.62121290	-0.24071106	-0.47168887
2704	27.03000000	-0.90841483	-0.17034752	0.15011508	-0.59214214	0.11513294	-0.72493886	-0.46242395	-0.71571618	-0.18313803	-0.64638585	-0.55850794	0.02624870	-0.74018119	0.30926200	0.10020810	-0.72042069	0.05936604	0.17796634	-0.67545797	-0.20976978	-0.36205731	-0.63096126	-0.22564662	-0.46551976
2705	27.04000000	-0.90725266	-0.17690089	0.14029599	-0.60308958	0.12772127	-0.71386631	-0.45506660	-0.72811485	-0.18678112	-0.64308177	-0.55402816	0.02167002	-0.73854206	0.30813918	0.10681399	-0.71938944	0.06138595	0.17594047	-0.67970173	-0.20751893	-0.36915711	-0.64731400	-0.20731387	-0.45514176
